<?xml version="1.0" encoding="UTF-8"?>
<svg width="26" height="26" viewBox="0 0 26 26" fill="none" xmlns="http://www.w3.org/2000/svg">
  <!-- Cloud shape -->
  <path d="M20 11.5C20 8.46 17.54 6 14.5 6C12.24 6 10.29 7.36 9.42 9.28C9.15 9.2 8.86 9.15 8.55 9.15C6.59 9.15 5 10.74 5 12.7C5 14.66 6.59 16.25 8.55 16.25H19.5C21.43 16.25 23 14.68 23 12.75C23 10.96 21.67 9.49 19.93 9.29C20 9.7 20 10.1 20 11.5Z" stroke="#2D8EFF" stroke-width="1.5" fill="none"/>
  <!-- Upload arrow -->
  <path d="M13 20V13" stroke="#2D8EFF" stroke-width="1.5" stroke-linecap="round"/>
  <path d="M10 15.5L13 12.5L16 15.5" stroke="#2D8EFF" stroke-width="1.5" stroke-linecap="round" stroke-linejoin="round"/>
</svg>
