<?xml version="1.0" encoding="UTF-8"?>
<svg width="26" height="26" viewBox="0 0 26 26" fill="none" xmlns="http://www.w3.org/2000/svg">
  <!-- Cloud shape -->
  <path d="M20 10C20 7.24 17.76 5 15 5C12.93 5 11.15 6.28 10.38 8.1C10.13 8.03 9.86 8 9.58 8C7.79 8 6.33 9.46 6.33 11.25C6.33 13.04 7.79 14.5 9.58 14.5H19.17C20.95 14.5 22.42 13.04 22.42 11.25C22.42 9.59 21.17 8.23 19.55 8.04C19.85 8.66 20 9.32 20 10Z" stroke="#2D8EFF" stroke-width="1.5" fill="none"/>
  <!-- Download arrow -->
  <path d="M13 14V21" stroke="#2D8EFF" stroke-width="1.5" stroke-linecap="round"/>
  <path d="M10 18.5L13 21.5L16 18.5" stroke="#2D8EFF" stroke-width="1.5" stroke-linecap="round" stroke-linejoin="round"/>
</svg>
